<?xml version="1.0" encoding="utf-8"?>
<!-- Generator: Adobe Illustrator 26.5.0, SVG Export Plug-In . SVG Version: 6.00 Build 0)  -->
<svg version="1.1" id="Layer_1" xmlns="http://www.w3.org/2000/svg" xmlns:xlink="http://www.w3.org/1999/xlink" width="25"
   height="25"
	 viewBox="0 0 30 30" style="enable-background:new 0 0 30 30;" xml:space="preserve">
<style type="text/css">
	.st0{fill:#FFFFFF;}
</style>
<path class="st0" d="M10,3.8c-3.4,0-6.2,2.8-6.2,6.2v10c0,3.4,2.8,6.2,6.2,6.2h10c3.4,0,6.2-2.8,6.2-6.2V10c0-3.4-2.8-6.2-6.2-6.2
	H10z M10,6.2h10c2.1,0,3.8,1.7,3.8,3.8v10c0,2.1-1.7,3.8-3.8,3.8H10c-2.1,0-3.8-1.7-3.8-3.8V10C6.2,7.9,7.9,6.2,10,6.2z M21.2,7.5
	c-0.7,0-1.2,0.6-1.2,1.2s0.6,1.2,1.2,1.2s1.2-0.6,1.2-1.2S21.9,7.5,21.2,7.5z M15,8.8c-3.4,0-6.2,2.8-6.2,6.2s2.8,6.2,6.2,6.2
	s6.2-2.8,6.2-6.2S18.4,8.8,15,8.8z M15,11.2c2.1,0,3.8,1.7,3.8,3.8s-1.7,3.8-3.8,3.8s-3.8-1.7-3.8-3.8S12.9,11.2,15,11.2z"/>
</svg>
